<?xml version="1.0" encoding="utf-8"?>
<!-- Generator: Adobe Illustrator 16.0.0, SVG Export Plug-In . SVG Version: 6.00 Build 0)  -->
<!DOCTYPE svg PUBLIC "-//W3C//DTD SVG 1.1//EN" "http://www.w3.org/Graphics/SVG/1.1/DTD/svg11.dtd">
<svg version="1.1" id="图层_1" xmlns="http://www.w3.org/2000/svg" xmlns:xlink="http://www.w3.org/1999/xlink" x="0px" y="0px"
	 width="16px" height="16px" viewBox="0 0 16 16" enable-background="new 0 0 16 16" xml:space="preserve">
<path fill="#828282" d="M11.965,10.615c0,0-0.186,0.351-1.041,0.65c-1.169,0.41-1.47,0.375-2.9,0.375s-1.465-0.021-1.465-0.021
	s-0.813-0.004-1.503-0.354s-1.025-0.65-1.025-0.65H0.62C1.632,13.739,4.562,16,8.023,16c3.461,0,6.391-2.261,7.403-5.385H11.965z"/>
<path fill="#828282" d="M7.999,0.431c-4.285,0-7.76,3.474-7.76,7.761c0,3.428,2.223,6.337,5.307,7.363
	c0.388,0.071,0.53-0.168,0.53-0.373c0-0.185-0.007-0.673-0.01-1.32C3.907,14.33,3.452,12.82,3.452,12.82
	c-0.353-0.896-0.862-1.135-0.862-1.135c-0.705-0.48,0.053-0.472,0.053-0.472c0.779,0.056,1.189,0.8,1.189,0.8
	c0.692,1.187,1.816,0.844,2.258,0.646c0.071-0.503,0.271-0.843,0.493-1.037C4.86,11.425,3.049,10.76,3.049,7.786
	c0-0.847,0.302-1.54,0.799-2.082C3.768,5.507,3.501,4.718,3.924,3.65c0,0,0.652-0.209,2.134,0.796C6.677,4.273,7.34,4.187,8,4.184
	c0.659,0.003,1.323,0.089,1.943,0.261c1.481-1.004,2.132-0.796,2.132-0.796c0.423,1.068,0.157,1.857,0.077,2.054
	c0.496,0.542,0.798,1.235,0.798,2.082c0,2.98-1.813,3.637-3.543,3.828c0.278,0.24,0.526,0.714,0.526,1.438
	c0,1.037-0.01,1.874-0.01,2.129c0,0.209,0.141,0.449,0.534,0.373c3.081-1.027,5.302-3.935,5.302-7.362
	C15.76,3.906,12.285,0.431,7.999,0.431z"/>
<g>
	<g>
		<g>
			<path fill="#FFFFFF" d="M7.536,12.122c0,0,0.02,0.025,0.043,0.066c0.006,0.038,0.092,0.109,0.057,0.163
				c-0.027,0.117-0.064,0.273-0.1,0.43c-0.037,0.156-0.073,0.313-0.101,0.43c0.004,0.063-0.102,0.09-0.125,0.12
				c-0.042,0.026-0.067,0.041-0.067,0.041s-0.015-0.024-0.042-0.066c-0.007-0.038-0.09-0.108-0.059-0.163
				c0.027-0.117,0.064-0.273,0.1-0.43c0.037-0.156,0.073-0.313,0.101-0.43c-0.008-0.063,0.101-0.09,0.123-0.12
				C7.507,12.136,7.536,12.122,7.536,12.122z"/>
		</g>
		<g>
			<path fill="#FFFFFF" d="M7.244,13.747c0,0,0.024,0.018,0.057,0.048c0.015,0.031,0.115,0.075,0.093,0.128c0,0.105,0,0.246,0,0.387
				s0,0.281,0,0.387c0.018,0.053-0.079,0.097-0.094,0.128c-0.036,0.03-0.056,0.048-0.056,0.048s-0.021-0.018-0.056-0.048
				c-0.015-0.031-0.112-0.075-0.094-0.128c0-0.105,0-0.246,0-0.387s0-0.281,0-0.387c-0.022-0.053,0.078-0.097,0.093-0.128
				C7.22,13.765,7.244,13.747,7.244,13.747z"/>
		</g>
		<g>
			<path fill="#FFFFFF" d="M7.244,15.122c0,0,0.021,0.007,0.057,0.018c0.015,0.011,0.115,0.026,0.093,0.046c0,0.038,0,0.089,0,0.14
				s0,0.102,0,0.14c0.018,0.02-0.079,0.035-0.094,0.046c-0.036,0.011-0.056,0.018-0.056,0.018s-0.021-0.007-0.056-0.018
				c-0.015-0.011-0.112-0.026-0.094-0.046c0-0.038,0-0.089,0-0.14s0-0.102,0-0.14c-0.022-0.02,0.078-0.035,0.093-0.046
				C7.223,15.129,7.244,15.122,7.244,15.122z"/>
		</g>
	</g>
	<g>
		<g>
			<path fill="#FFFFFF" d="M8.464,12.122c0,0,0.029,0.014,0.069,0.041c0.021,0.03,0.131,0.057,0.123,0.12
				c0.027,0.117,0.063,0.273,0.1,0.43c0.037,0.156,0.073,0.313,0.101,0.43c0.031,0.055-0.052,0.125-0.059,0.163
				c-0.026,0.042-0.042,0.066-0.042,0.066s-0.024-0.015-0.067-0.041c-0.022-0.03-0.128-0.058-0.124-0.12
				c-0.027-0.117-0.064-0.273-0.101-0.43s-0.073-0.313-0.1-0.43c-0.035-0.054,0.051-0.125,0.057-0.163
				C8.445,12.147,8.464,12.122,8.464,12.122z"/>
		</g>
		<g>
			<path fill="#FFFFFF" d="M8.756,13.747c0,0,0.024,0.018,0.058,0.048c0.015,0.031,0.114,0.075,0.093,0.128c0,0.105,0,0.246,0,0.387
				s0,0.281,0,0.387c0.018,0.053-0.079,0.097-0.095,0.128c-0.035,0.03-0.056,0.048-0.056,0.048S8.735,14.854,8.7,14.824
				c-0.016-0.031-0.112-0.075-0.095-0.128c0-0.105,0-0.246,0-0.387s0-0.281,0-0.387c-0.021-0.053,0.078-0.097,0.093-0.128
				C8.731,13.765,8.756,13.747,8.756,13.747z"/>
		</g>
		<g>
			<path fill="#FFFFFF" d="M8.756,15.122c0,0,0.021,0.007,0.058,0.018c0.015,0.011,0.114,0.026,0.093,0.046c0,0.038,0,0.089,0,0.14
				s0,0.102,0,0.14c0.018,0.02-0.079,0.035-0.095,0.046c-0.035,0.011-0.056,0.018-0.056,0.018S8.735,15.521,8.7,15.511
				c-0.016-0.011-0.112-0.026-0.095-0.046c0-0.038,0-0.089,0-0.14s0-0.102,0-0.14c-0.021-0.02,0.078-0.035,0.093-0.046
				C8.735,15.129,8.756,15.122,8.756,15.122z"/>
		</g>
	</g>
	<g>
		<g>
			<path fill="#FFFFFF" d="M6.871,12.044c0,0,0.012,0.03,0.024,0.079c-0.004,0.041,0.061,0.135,0.012,0.184
				c-0.059,0.117-0.137,0.273-0.215,0.43s-0.156,0.313-0.215,0.43c-0.013,0.066-0.124,0.072-0.155,0.1
				c-0.049,0.018-0.077,0.028-0.077,0.028s-0.008-0.028-0.023-0.079c0.003-0.041-0.059-0.133-0.013-0.184
				c0.059-0.117,0.137-0.273,0.215-0.43s0.156-0.313,0.215-0.43c0.01-0.068,0.124-0.072,0.154-0.1
				C6.839,12.053,6.871,12.044,6.871,12.044z"/>
		</g>
		<g>
			<path fill="#FFFFFF" d="M6.246,13.669c0,0,0.029,0.011,0.069,0.033c0.022,0.026,0.131,0.044,0.125,0.103
				c0.029,0.105,0.068,0.246,0.107,0.387s0.078,0.281,0.107,0.387c0.032,0.048-0.049,0.117-0.055,0.152
				c-0.026,0.04-0.041,0.063-0.041,0.063s-0.024-0.012-0.067-0.033c-0.023-0.026-0.128-0.045-0.126-0.103
				c-0.029-0.105-0.068-0.246-0.107-0.387S6.18,13.99,6.15,13.885c-0.036-0.047,0.048-0.117,0.054-0.152
				C6.227,13.693,6.246,13.669,6.246,13.669z"/>
		</g>
		<g>
			<path fill="#FFFFFF" d="M6.559,15.044c0,0,0.001,0.024,0.002,0.066c-0.01,0.023,0.018,0.124-0.024,0.124
				c-0.061,0.038-0.142,0.089-0.223,0.14s-0.163,0.102-0.223,0.14c-0.021,0.034-0.098-0.031-0.124-0.033
				c-0.037-0.02-0.058-0.03-0.058-0.03s0-0.023-0.002-0.064c0.01-0.024-0.016-0.122,0.024-0.126c0.061-0.038,0.142-0.089,0.223-0.14
				s0.163-0.102,0.223-0.14c0.019-0.038,0.097,0.031,0.123,0.032C6.538,15.032,6.559,15.044,6.559,15.044z"/>
		</g>
	</g>
	<g>
		<g>
			<path fill="#FFFFFF" d="M9.13,12.044c0,0,0.032,0.009,0.078,0.028c0.03,0.027,0.145,0.031,0.153,0.1
				c0.059,0.117,0.137,0.273,0.215,0.43s0.156,0.313,0.215,0.43c0.046,0.051-0.017,0.143-0.013,0.184
				c-0.015,0.051-0.023,0.079-0.023,0.079s-0.028-0.011-0.077-0.028c-0.03-0.027-0.142-0.033-0.154-0.1
				c-0.059-0.117-0.137-0.273-0.215-0.43s-0.156-0.313-0.215-0.43c-0.05-0.049,0.016-0.143,0.012-0.184
				C9.117,12.074,9.13,12.044,9.13,12.044z"/>
		</g>
		<g>
			<path fill="#FFFFFF" d="M9.755,13.669c0,0,0.019,0.024,0.042,0.063c0.005,0.035,0.09,0.105,0.054,0.152
				c-0.029,0.105-0.068,0.246-0.107,0.387s-0.078,0.281-0.107,0.387c0.003,0.058-0.103,0.076-0.126,0.103
				c-0.043,0.021-0.067,0.033-0.067,0.033s-0.015-0.023-0.04-0.063c-0.007-0.035-0.088-0.104-0.056-0.152
				c0.029-0.105,0.068-0.246,0.107-0.387s0.078-0.281,0.107-0.387c-0.007-0.059,0.103-0.076,0.125-0.103
				C9.727,13.68,9.755,13.669,9.755,13.669z"/>
		</g>
		<g>
			<path fill="#FFFFFF" d="M9.442,15.044c0,0,0.021-0.012,0.059-0.031c0.025-0.001,0.104-0.07,0.122-0.032
				c0.062,0.038,0.143,0.089,0.224,0.14s0.162,0.102,0.223,0.14c0.04,0.004,0.014,0.102,0.023,0.126
				c-0.001,0.041-0.002,0.064-0.002,0.064s-0.021,0.011-0.058,0.03c-0.025,0.002-0.103,0.067-0.123,0.033
				c-0.062-0.038-0.143-0.089-0.224-0.14s-0.162-0.102-0.223-0.14c-0.042,0-0.014-0.101-0.024-0.124
				C9.441,15.068,9.442,15.044,9.442,15.044z"/>
		</g>
	</g>
	<g>
		<path fill="#FFFFFF" d="M7.999,11.744c0,0,0.024,0.03,0.057,0.083c0.015,0.053,0.115,0.128,0.093,0.218c0,0.181,0,0.421,0,0.662
			c0,0.24,0,0.48,0,0.661c0.018,0.09-0.079,0.165-0.094,0.218c-0.036,0.053-0.056,0.083-0.056,0.083s-0.021-0.03-0.056-0.083
			c-0.015-0.053-0.112-0.128-0.094-0.218c0-0.181,0-0.421,0-0.661c0-0.241,0-0.481,0-0.662c-0.022-0.09,0.078-0.165,0.093-0.218
			C7.975,11.774,7.999,11.744,7.999,11.744z"/>
	</g>
	<g>
		<path fill="#FFFFFF" d="M7.848,13.643c0,0-0.034,0.001-0.086-0.005c-0.04-0.02-0.152,0.01-0.187-0.056
			c-0.1-0.1-0.233-0.233-0.366-0.366c-0.133-0.134-0.267-0.267-0.367-0.367c-0.063-0.037-0.036-0.147-0.054-0.188
			c-0.004-0.054-0.006-0.085-0.006-0.085s0.031,0.002,0.085,0.006c0.04,0.019,0.15-0.008,0.188,0.055
			c0.1,0.1,0.233,0.233,0.366,0.366c0.133,0.134,0.267,0.267,0.367,0.367c0.065,0.034,0.037,0.146,0.055,0.187
			C7.849,13.608,7.848,13.643,7.848,13.643z"/>
	</g>
	<g>
		<path fill="#FFFFFF" d="M8.15,13.643c0,0-0.001-0.034,0.005-0.086c0.019-0.04-0.01-0.152,0.055-0.187
			c0.1-0.101,0.233-0.233,0.367-0.367c0.134-0.133,0.267-0.267,0.367-0.366c0.037-0.063,0.147-0.036,0.188-0.055
			c0.054-0.004,0.085-0.006,0.085-0.006s-0.002,0.031-0.006,0.085c-0.019,0.04,0.008,0.15-0.055,0.188
			c-0.101,0.101-0.233,0.233-0.367,0.367c-0.133,0.133-0.267,0.267-0.366,0.366c-0.035,0.065-0.147,0.036-0.187,0.056
			C8.184,13.644,8.15,13.643,8.15,13.643z"/>
	</g>
	<g>
		<path fill="#FFFFFF" d="M6.402,12.576c0,0,0.002,0.03,0,0.075c-0.014,0.03,0.016,0.136-0.039,0.152
			c-0.082,0.067-0.189,0.157-0.297,0.247c-0.108,0.09-0.216,0.179-0.297,0.246c-0.029,0.048-0.125,0.002-0.158,0.01
			c-0.046-0.008-0.073-0.013-0.073-0.013s0-0.027,0.001-0.074c0.014-0.031-0.014-0.134,0.038-0.153
			c0.081-0.067,0.189-0.157,0.297-0.247c0.108-0.09,0.216-0.179,0.297-0.246c0.026-0.051,0.124-0.002,0.157-0.011
			C6.373,12.568,6.402,12.576,6.402,12.576z"/>
	</g>
	<g>
		<path fill="#FFFFFF" d="M5.163,13.372c0,0-0.014,0.021-0.04,0.058c-0.025,0.015-0.061,0.114-0.104,0.093c-0.086,0-0.201,0-0.315,0
			s-0.229,0-0.315,0c-0.043,0.018-0.079-0.079-0.104-0.095c-0.025-0.035-0.04-0.056-0.04-0.056s0.014-0.021,0.04-0.056
			c0.025-0.016,0.061-0.112,0.104-0.095c0.086,0,0.201,0,0.315,0s0.229,0,0.315,0C5.063,13.2,5.098,13.3,5.123,13.314
			C5.148,13.352,5.163,13.372,5.163,13.372z"/>
	</g>
	<g>
		<path fill="#FFFFFF" d="M4.038,13.109c0,0-0.03-0.003-0.074-0.014c-0.029-0.02-0.138-0.007-0.146-0.064
			c-0.055-0.093-0.128-0.216-0.201-0.339c-0.073-0.124-0.146-0.247-0.201-0.34c-0.042-0.037,0.018-0.125,0.015-0.159
			c0.015-0.046,0.023-0.071,0.023-0.071s0.027,0.005,0.073,0.014c0.029,0.02,0.135,0.009,0.147,0.064
			c0.055,0.093,0.128,0.216,0.201,0.339c0.073,0.124,0.146,0.247,0.201,0.34c0.046,0.035-0.017,0.124-0.014,0.159
			C4.05,13.081,4.038,13.109,4.038,13.109z"/>
	</g>
	<g>
		<path fill="#FFFFFF" d="M3.252,11.744c0,0-0.024,0.011-0.065,0.03c-0.031-0.001-0.113,0.069-0.145,0.027
			c-0.083-0.045-0.195-0.104-0.306-0.165c-0.111-0.06-0.223-0.119-0.306-0.164c-0.05-0.007-0.04-0.11-0.057-0.137
			c-0.007-0.045-0.012-0.07-0.012-0.07s0.023-0.011,0.065-0.028c0.031-0.001,0.112-0.067,0.145-0.029
			c0.083,0.045,0.195,0.104,0.306,0.165c0.111,0.06,0.223,0.119,0.306,0.164c0.052,0.003,0.04,0.11,0.057,0.136
			C3.248,11.719,3.252,11.744,3.252,11.744z"/>
	</g>
</g>
<text transform="matrix(1 0 0 1 3.8521 9.4492)" fill="#828282" font-family="'Calibri-Light'" font-size="4.3819">●ω●</text>
</svg>
