<?xml version="1.0" encoding="utf-8"?>
<!-- Generator: Adobe Illustrator 16.0.0, SVG Export Plug-In . SVG Version: 6.00 Build 0)  -->
<!DOCTYPE svg PUBLIC "-//W3C//DTD SVG 1.1//EN" "http://www.w3.org/Graphics/SVG/1.1/DTD/svg11.dtd">
<svg version="1.1" id="图层_1" xmlns="http://www.w3.org/2000/svg" xmlns:xlink="http://www.w3.org/1999/xlink" x="0px" y="0px"
	 width="78.581px" height="90.5px" viewBox="0 0 78.581 90.5" enable-background="new 0 0 78.581 90.5" xml:space="preserve">
<g>
	<path stroke="#d1f7ff" d="M38.058,48.269c0,0.046-0.009,0.085-0.024,0.117c-0.017,0.032-0.048,0.061-0.093,0.083
		c-0.046,0.022-0.109,0.041-0.19,0.054c-0.082,0.013-0.185,0.02-0.308,0.02c-0.111,0-0.204-0.005-0.278-0.015
		c-0.075-0.01-0.139-0.029-0.19-0.059c-0.053-0.029-0.095-0.068-0.127-0.117c-0.033-0.049-0.063-0.112-0.088-0.19l-1.182-3.066
		c-0.137-0.345-0.283-0.671-0.439-0.977s-0.346-0.571-0.566-0.796c-0.222-0.225-0.488-0.402-0.801-0.532s-0.688-0.195-1.123-0.195
		h-1.309v5.693c0,0.039-0.01,0.075-0.029,0.107s-0.053,0.059-0.098,0.078c-0.046,0.02-0.106,0.036-0.181,0.049
		c-0.075,0.013-0.171,0.02-0.288,0.02c-0.111,0-0.205-0.007-0.283-0.02s-0.141-0.029-0.186-0.049
		c-0.046-0.02-0.078-0.046-0.098-0.078s-0.029-0.068-0.029-0.107V36.462c0-0.234,0.062-0.396,0.186-0.483
		c0.123-0.088,0.244-0.132,0.361-0.132h2.373c0.313,0,0.571,0.008,0.776,0.024s0.392,0.037,0.562,0.063
		c0.481,0.085,0.901,0.222,1.26,0.41c0.357,0.188,0.654,0.422,0.889,0.698s0.408,0.589,0.522,0.938
		c0.113,0.349,0.171,0.725,0.171,1.128c0,0.417-0.059,0.789-0.176,1.118s-0.283,0.618-0.498,0.869s-0.473,0.467-0.771,0.649
		c-0.3,0.183-0.629,0.335-0.986,0.459c0.215,0.098,0.408,0.218,0.581,0.361c0.172,0.144,0.332,0.315,0.479,0.518
		s0.284,0.435,0.415,0.698c0.13,0.264,0.26,0.559,0.391,0.884l1.182,2.949c0.084,0.228,0.138,0.384,0.161,0.469
		C38.046,48.168,38.058,48.23,38.058,48.269z M35.958,39.236c0-0.54-0.121-0.998-0.361-1.372c-0.241-0.374-0.645-0.643-1.211-0.806
		c-0.189-0.052-0.395-0.09-0.615-0.112c-0.222-0.022-0.512-0.034-0.869-0.034h-1.563v4.639h1.816c0.488,0,0.908-0.061,1.26-0.181
		s0.643-0.285,0.874-0.493c0.23-0.208,0.4-0.452,0.508-0.732S35.958,39.561,35.958,39.236z"/>
	<path stroke="#d1f7ff" d="M46.749,46.98c0,0.078-0.004,0.148-0.01,0.21c-0.007,0.062-0.017,0.115-0.029,0.161c-0.014,0.046-0.031,0.086-0.054,0.122
		c-0.023,0.036-0.077,0.096-0.161,0.181c-0.085,0.085-0.227,0.192-0.425,0.322c-0.199,0.13-0.422,0.244-0.669,0.342
		c-0.248,0.098-0.515,0.178-0.801,0.239c-0.287,0.062-0.583,0.093-0.889,0.093c-0.612,0-1.154-0.103-1.626-0.308
		c-0.473-0.205-0.868-0.508-1.187-0.908c-0.319-0.4-0.562-0.892-0.728-1.475s-0.249-1.255-0.249-2.017
		c0-0.859,0.103-1.595,0.308-2.207s0.486-1.113,0.845-1.504c0.357-0.391,0.776-0.679,1.255-0.864s0.991-0.278,1.538-0.278
		c0.293,0,0.572,0.027,0.84,0.083c0.267,0.056,0.513,0.129,0.737,0.22s0.425,0.195,0.601,0.313s0.304,0.217,0.386,0.298
		c0.081,0.081,0.137,0.144,0.166,0.186s0.052,0.09,0.068,0.142c0.016,0.052,0.027,0.109,0.034,0.171
		c0.006,0.062,0.01,0.135,0.01,0.22c0,0.188-0.028,0.32-0.083,0.396c-0.056,0.075-0.116,0.112-0.181,0.112
		c-0.092,0-0.204-0.059-0.337-0.176c-0.134-0.117-0.305-0.246-0.513-0.386c-0.209-0.14-0.461-0.269-0.757-0.386
		c-0.297-0.117-0.649-0.176-1.06-0.176c-0.847,0-1.499,0.325-1.958,0.977s-0.688,1.592-0.688,2.822c0,0.618,0.062,1.16,0.186,1.626
		c0.123,0.466,0.301,0.853,0.532,1.162c0.23,0.31,0.513,0.54,0.845,0.693s0.706,0.229,1.123,0.229c0.391,0,0.735-0.062,1.035-0.186
		c0.299-0.124,0.56-0.261,0.781-0.41c0.221-0.149,0.405-0.286,0.552-0.41s0.255-0.186,0.327-0.186c0.039,0,0.073,0.012,0.103,0.034
		s0.054,0.059,0.073,0.107s0.034,0.107,0.044,0.176S46.749,46.889,46.749,46.98z"/>
</g>
<polygon fill="#01012b" points="62.601,56.101 74.025,66.87 68.313,72.424 56.111,60.553 "/>
<polygon fill="#01012b" points="69.47,72.801 75.479,66.424 78.581,69.613 71.956,76.422 "/>
<g>
	<line fill="none" stroke="#d1f7ff" stroke-miterlimit="10" x1="51.463" y1="52.204" x2="71.488" y2="72.23"/>
	<g>
		<circle fill="none" stroke="#d1f7ff" stroke-miterlimit="10" cx="36.689" cy="42.446" r="31.875"/>
		<circle fill="none" stroke="#d1f7ff" stroke-miterlimit="10" cx="41.067" cy="43.998" r="31.875"/>
	</g>
	<polygon fill="#01012b" points="12.553,22.771 16.596,21.09 28.427,16.194 34.397,17.842 29.408,15.622 40.471,12.247 
		26.971,12.434 25.022,7.706 11.646,19.674 	"/>
	<line fill="none" stroke="#d1f7ff" stroke-miterlimit="10" x1="14.994" y1="5.784" x2="29.551" y2="20.341"/>
	<polyline fill="none" stroke="#d1f7ff" stroke-miterlimit="10" points="61.119,70.776 65.722,76.241 65.722,77.319 65.721,87.934 	
		"/>
	<line fill="none" stroke="#d1f7ff" stroke-miterlimit="10" x1="11.486" y1="13.334" x2="16.986" y2="18.833"/>
</g>
</svg>
